<?xml version="1.0" standalone="no"?>
<!DOCTYPE svg PUBLIC "-//W3C//DTD SVG 20010904//EN"
 "http://www.w3.org/TR/2001/REC-SVG-20010904/DTD/svg10.dtd">
<svg version="1.0" xmlns="http://www.w3.org/2000/svg"
 width="3933.000000pt" height="3308.000000pt" viewBox="0 0 3933.000000 3308.000000"
 preserveAspectRatio="xMidYMid meet">

<g transform="translate(0.000000,3308.000000) scale(0.100000,-0.100000)"
fill="#000000" stroke="none">
<path d="M8420 24266 c0 -6002 -3 -8766 -10 -8837 -21 -206 -82 -423 -164
-590 -159 -321 -387 -491 -759 -566 -73 -14 -232 -17 -1367 -23 -1109 -6
-1305 -9 -1430 -23 -793 -92 -1453 -281 -2081 -598 -1370 -690 -2223 -1883
-2458 -3439 -121 -805 -80 -1693 115 -2440 305 -1169 1017 -2115 2049 -2722
657 -386 1469 -652 2265 -742 74 -8 153 -18 175 -22 22 -3 618 -9 1325 -13
1269 -7 1286 -8 1381 -29 295 -67 487 -168 657 -347 138 -145 225 -312 275
-530 21 -89 21 -108 24 -1678 l4 -1587 4997 2 4997 3 3 1520 c3 1530 0 1695
-33 1917 -90 599 -359 1141 -774 1556 -392 391 -916 664 -1491 777 -309 60
-265 58 -1655 65 -1424 7 -1331 3 -1715 80 -397 80 -722 190 -1051 354 -873
439 -1387 1144 -1555 2135 -68 403 -79 908 -29 1323 91 744 359 1335 810 1783
527 525 1340 874 2257 970 123 12 334 15 1285 15 682 0 1196 4 1283 11 716 51
1305 298 1763 739 155 148 256 270 376 450 277 417 446 902 513 1475 11 89 13
1776 13 8925 l0 8815 -4997 3 -4998 2 0 -8734z"/>
<path d="M20895 32243 c19 -2070 24 -2366 40 -2523 171 -1679 927 -3061 2105
-3845 434 -288 899 -492 1428 -624 449 -113 811 -156 1427 -171 510 -13 743
-39 1060 -120 262 -67 418 -125 647 -241 669 -340 1155 -953 1431 -1804 147
-452 232 -990 207 -1296 -48 -571 -188 -1092 -420 -1564 -297 -602 -704 -1023
-1251 -1294 -327 -163 -661 -258 -1109 -318 -108 -14 -304 -17 -1460 -23
-1431 -8 -1409 -7 -1695 -61 -1147 -215 -1969 -916 -2263 -1929 -173 -595
-167 -1337 15 -1912 138 -438 358 -797 676 -1104 451 -437 1033 -702 1777
-811 101 -14 269 -17 1365 -23 1356 -7 1286 -4 1625 -66 786 -142 1460 -469
1915 -929 202 -204 347 -405 480 -670 186 -367 287 -747 336 -1255 16 -164 16
-649 0 -820 -75 -822 -341 -1450 -816 -1925 -154 -155 -251 -234 -440 -360
-476 -317 -1002 -503 -1722 -612 -94 -14 -275 -17 -1358 -23 -1379 -7 -1333
-5 -1668 -75 -1167 -241 -1992 -1013 -2231 -2087 -82 -370 -88 -508 -84 -2243
l3 -1430 4997 -3 4997 -2 4 1587 c3 1570 3 1589 24 1678 29 125 81 260 139
357 64 109 229 276 337 343 160 98 370 169 572 194 60 7 468 11 1240 11 950 0
1180 3 1325 15 992 87 1940 405 2680 898 1003 669 1648 1642 1899 2867 157
768 157 1672 0 2440 -291 1418 -1120 2509 -2398 3154 -634 320 -1284 508
-2091 602 -126 15 -307 18 -1380 24 l-1235 6 -121 27 c-313 69 -550 189 -711
361 -166 178 -253 408 -272 721 -15 258 17 519 84 691 157 398 522 611 1185
690 36 5 587 8 1225 9 1265 0 1233 -1 1648 61 675 100 1328 311 1828 589 641
356 1206 929 1609 1630 90 155 257 504 325 675 279 703 453 1631 415 2212 -75
1142 -456 2225 -1070 3038 -893 1183 -2238 1789 -3971 1790 -957 0 -1742 285
-2288 830 -520 518 -866 1307 -976 2225 -16 132 -18 221 -41 2513 l-6 682
-5000 0 -5000 0 7 -757z"/>
</g>
</svg>
